<svg xmlns="http://www.w3.org/2000/svg" version="1.1" xmlns:xlink="http://www.w3.org/1999/xlink" xmlns:svgjs="http://svgjs.com/svgjs" width="512" height="512" x="0" y="0" viewBox="0 0 512 512" style="enable-background:new 0 0 512 512" xml:space="preserve" class=""><g><path xmlns="http://www.w3.org/2000/svg" d="m195 422h157v-167c0-8.284 6.716-15 15-15s15 6.716 15 15v182c0 8.284-6.716 15-15 15h-172z" fill="#5a6982" data-original="#5a6982"></path><path xmlns="http://www.w3.org/2000/svg" d="m165 182h-120c-24.813 0-45 20.187-45 45v240c0 24.813 20.187 45 45 45h120c24.813 0 45-20.187 45-45v-240c0-24.813-20.187-45-45-45z" fill="#5a6982" data-original="#5a6982"></path><path xmlns="http://www.w3.org/2000/svg" d="m165 182h-60v330h60c24.813 0 45-20.187 45-45v-240c0-24.813-20.187-45-45-45z" fill="#44505f" data-original="#44505f"></path><path xmlns="http://www.w3.org/2000/svg" d="m180 437h-150v-180h150z" fill="#8cdcff" data-original="#8cdcff"></path><path xmlns="http://www.w3.org/2000/svg" d="m105 257h75v180h-75z" fill="#66c1ff" data-original="#66c1ff"></path><path xmlns="http://www.w3.org/2000/svg" d="m456.999 270h-180c-8.284 0-15-6.716-15-15v-115h-25c-6.294 0-11.92-3.93-14.085-9.841-2.165-5.91-.409-12.544 4.396-16.61l130-110c5.594-4.732 13.785-4.732 19.379 0l130 110c4.805 4.066 6.561 10.7 4.396 16.61-2.165 5.911-7.79 9.841-14.085 9.841h-25v115c-.001 8.284-6.717 15-15.001 15z" fill="#e6f5fa" data-original="#e6f5fa"></path><path xmlns="http://www.w3.org/2000/svg" d="m456.999 270c8.284 0 15-6.716 15-15v-115h25c6.295 0 11.92-3.93 14.085-9.841 2.165-5.91.409-12.544-4.396-16.61l-130-110c-2.796-2.366-6.243-3.549-9.689-3.549v270z" fill="#c8e1e6" data-original="#c8e1e6"></path><path xmlns="http://www.w3.org/2000/svg" d="m411.999 270h-90v-95c0-8.284 6.716-15 15-15h60c8.284 0 15 6.716 15 15z" fill="#d26c23" data-original="#d26c23"></path><path xmlns="http://www.w3.org/2000/svg" d="m396.999 160h-30v110h45v-95c0-8.284-6.716-15-15-15z" fill="#af5a1e" data-original="#af5a1e"></path><g xmlns="http://www.w3.org/2000/svg" fill="#ffeb50"><path d="m147.426 107.574c-3.839 0-7.677-1.464-10.607-4.394-8.499-8.499-19.799-13.18-31.819-13.18s-23.32 4.681-31.819 13.18c-5.858 5.858-15.356 5.858-21.213 0-5.858-5.858-5.858-15.355 0-21.213 14.164-14.166 32.999-21.967 53.032-21.967s38.868 7.801 53.033 21.967c5.857 5.858 5.857 15.355 0 21.213-2.929 2.929-6.768 4.393-10.607 4.394z" fill="#ffeb50" data-original="#ffeb50" class=""></path><path d="m189.853 65.147c-3.839 0-7.678-1.464-10.606-4.394-40.939-40.938-107.553-40.938-148.493 0-5.857 5.858-15.355 5.858-21.213 0s-5.858-15.355 0-21.213c52.636-52.638 138.282-52.637 190.918 0 5.858 5.857 5.858 15.355 0 21.213-2.928 2.93-6.767 4.394-10.606 4.394z" fill="#ffeb50" data-original="#ffeb50" class=""></path><circle cx="105" cy="135" r="15" fill="#ffeb50" data-original="#ffeb50" class=""></circle></g><path xmlns="http://www.w3.org/2000/svg" d="m105 120v30c8.284 0 15-6.716 15-15s-6.716-15-15-15z" fill="#ffcd14" data-original="#ffcd14"></path><path xmlns="http://www.w3.org/2000/svg" d="m136.819 103.18c2.93 2.929 6.768 4.394 10.607 4.394 3.838 0 7.678-1.465 10.606-4.393 5.858-5.858 5.858-15.355 0-21.213-14.164-14.167-32.999-21.968-53.032-21.968v30c12.02 0 23.32 4.681 31.819 13.18z" fill="#ffcd14" data-original="#ffcd14"></path><path xmlns="http://www.w3.org/2000/svg" d="m105 .063v29.987c26.888 0 53.777 10.235 74.247 30.704 2.929 2.929 6.768 4.394 10.606 4.394s7.678-1.464 10.606-4.394c5.858-5.858 5.858-15.355 0-21.213-26.318-26.319-60.889-39.478-95.459-39.478z" fill="#ffcd14" data-original="#ffcd14"></path></g></svg>