<svg xmlns="http://www.w3.org/2000/svg" version="1.1" xmlns:xlink="http://www.w3.org/1999/xlink" xmlns:svgjs="http://svgjs.com/svgjs" width="512" height="512" x="0" y="0" viewBox="0 0 64 64" style="enable-background:new 0 0 512 512" xml:space="preserve" class=""><g><g xmlns="http://www.w3.org/2000/svg" fill="#72769b"><path d="m9 56h22v2h-22z" fill="#72769b" data-original="#72769b" class=""></path><path d="m33.5 56h21v2h-21z" fill="#72769b" data-original="#72769b" class=""></path><path d="m31 42h2v13h-2z" fill="#72769b" data-original="#72769b" class=""></path><path d="m27 41h10v2h-10z" fill="#72769b" data-original="#72769b" class=""></path></g><circle xmlns="http://www.w3.org/2000/svg" cx="7" cy="57" fill="#71c967" r="4" data-original="#71c967"></circle><path xmlns="http://www.w3.org/2000/svg" d="m7 53a4 4 0 0 1 0 8" fill="#47b744" data-original="#47b744"></path><circle xmlns="http://www.w3.org/2000/svg" cx="57" cy="57" fill="#f43b3b" r="4" data-original="#f43b3b"></circle><path xmlns="http://www.w3.org/2000/svg" d="m57 53a4 4 0 0 1 0 8" fill="#db3131" data-original="#db3131" class=""></path><circle xmlns="http://www.w3.org/2000/svg" cx="32" cy="57" fill="#f7c23c" r="3" data-original="#f7c23c" class=""></circle><path xmlns="http://www.w3.org/2000/svg" d="m32 54a3 3 0 0 1 0 6" fill="#efaf22" data-original="#efaf22"></path><path xmlns="http://www.w3.org/2000/svg" d="m40 50v-16h-16v16h-11v-24l19-10 19 10v24z" fill="#8c93ba" data-original="#8c93ba" class=""></path><path xmlns="http://www.w3.org/2000/svg" d="m32 16v18h8v16h11v-24z" fill="#72769b" data-original="#72769b" class=""></path><path xmlns="http://www.w3.org/2000/svg" d="m27 13.27.68.73.73.69a5 5 0 0 1 7.07 0l.08.09 1.44-1.5a7 7 0 0 0 -9.94 0z" fill="#86ceca" data-original="#86ceca"></path><path xmlns="http://www.w3.org/2000/svg" d="m39.83 10.39a10.94 10.94 0 0 0 -15.68 0l.71.71-.71-.71 1.45 1.38a8.92 8.92 0 0 1 12.83 0z" fill="#86ceca" data-original="#86ceca"></path><path xmlns="http://www.w3.org/2000/svg" d="m42 8.24.67-.75a14.92 14.92 0 0 0 -21.35 0l1.44 1.41a12.91 12.91 0 0 1 18.52 0z" fill="#86ceca" data-original="#86ceca"></path></g></svg>